#VRML V2.0 utf8
# Illustrative prototype model; not a manufacturer mechanical drawing.
Transform { scale 0.3937007874 0.3937007874 0.3937007874 children [
Transform { translation 0 0 6.7 rotation 0 0 1 0 children [ Shape { appearance Appearance { material Material { diffuseColor 0.035 0.04 0.045 specularColor .25 .25 .25 shininess .35 } } geometry Box { size 16 22 13 } } ] }
Transform { translation -8.1 0 7.5 rotation 0 0 1 0 children [ Shape { appearance Appearance { material Material { diffuseColor 0.7 0.72 0.75 specularColor .25 .25 .25 shininess .35 } } geometry Box { size 0.3 16 8 } } ] }
Transform { translation -8.3 0 7.5 rotation 0 0 1 0 children [ Shape { appearance Appearance { material Material { diffuseColor 0.035 0.04 0.045 specularColor .25 .25 .25 shininess .35 } } geometry Box { size 0.3 13 5.5 } } ] }
Transform { translation 6 9.0 0.2 rotation 1 0 0 1.5707963 children [ Shape { appearance Appearance { material Material { diffuseColor 0.7 0.72 0.75 specularColor .25 .25 .25 shininess .35 } } geometry Cylinder { radius 0.35 height 4 } } ] }
Transform { translation 6 6.46 0.2 rotation 1 0 0 1.5707963 children [ Shape { appearance Appearance { material Material { diffuseColor 0.7 0.72 0.75 specularColor .25 .25 .25 shininess .35 } } geometry Cylinder { radius 0.35 height 4 } } ] }
Transform { translation 6 3.92 0.2 rotation 1 0 0 1.5707963 children [ Shape { appearance Appearance { material Material { diffuseColor 0.7 0.72 0.75 specularColor .25 .25 .25 shininess .35 } } geometry Cylinder { radius 0.35 height 4 } } ] }
Transform { translation 6 1.38 0.2 rotation 1 0 0 1.5707963 children [ Shape { appearance Appearance { material Material { diffuseColor 0.7 0.72 0.75 specularColor .25 .25 .25 shininess .35 } } geometry Cylinder { radius 0.35 height 4 } } ] }
Transform { translation 6 -1.1600000000000001 0.2 rotation 1 0 0 1.5707963 children [ Shape { appearance Appearance { material Material { diffuseColor 0.7 0.72 0.75 specularColor .25 .25 .25 shininess .35 } } geometry Cylinder { radius 0.35 height 4 } } ] }
Transform { translation 6 -3.6999999999999993 0.2 rotation 1 0 0 1.5707963 children [ Shape { appearance Appearance { material Material { diffuseColor 0.7 0.72 0.75 specularColor .25 .25 .25 shininess .35 } } geometry Cylinder { radius 0.35 height 4 } } ] }
Transform { translation 6 -6.24 0.2 rotation 1 0 0 1.5707963 children [ Shape { appearance Appearance { material Material { diffuseColor 0.7 0.72 0.75 specularColor .25 .25 .25 shininess .35 } } geometry Cylinder { radius 0.35 height 4 } } ] }
Transform { translation 6 -8.780000000000001 0.2 rotation 1 0 0 1.5707963 children [ Shape { appearance Appearance { material Material { diffuseColor 0.7 0.72 0.75 specularColor .25 .25 .25 shininess .35 } } geometry Cylinder { radius 0.35 height 4 } } ] }
] }
