#VRML V2.0 utf8
# Illustrative prototype model; not a manufacturer mechanical drawing.
Transform { scale 0.3937007874 0.3937007874 0.3937007874 children [
Transform { translation -7.62 0 3 rotation 0 0 1 0 children [ Shape { appearance Appearance { material Material { diffuseColor 0.035 0.04 0.045 specularColor .25 .25 .25 shininess .35 } } geometry Box { size 2.5 20 6 } } ] }
Transform { translation 7.62 0 3 rotation 0 0 1 0 children [ Shape { appearance Appearance { material Material { diffuseColor 0.035 0.04 0.045 specularColor .25 .25 .25 shininess .35 } } geometry Box { size 2.5 20 6 } } ] }
Transform { translation 0 0 6.8 rotation 0 0 1 0 children [ Shape { appearance Appearance { material Material { diffuseColor 0.03 0.35 0.23 specularColor .25 .25 .25 shininess .35 } } geometry Box { size 20 24 1.6 } } ] }
Transform { translation 0 0 8.2 rotation 0 0 1 0 children [ Shape { appearance Appearance { material Material { diffuseColor 0.035 0.04 0.045 specularColor .25 .25 .25 shininess .35 } } geometry Box { size 6 6 1.2 } } ] }
Transform { translation 8.8 0 9 rotation 0 0 1 0 children [ Shape { appearance Appearance { material Material { diffuseColor 0.7 0.72 0.75 specularColor .25 .25 .25 shininess .35 } } geometry Box { size 5 8 3 } } ] }
Transform { translation 11.4 0 9 rotation 0 0 1 0 children [ Shape { appearance Appearance { material Material { diffuseColor 0.035 0.04 0.045 specularColor .25 .25 .25 shininess .35 } } geometry Box { size 0.2 6 1.7 } } ] }
Transform { translation -7.62 8.89 0 rotation 1 0 0 1.5707963 children [ Shape { appearance Appearance { material Material { diffuseColor 0.75 0.56 0.15 specularColor .25 .25 .25 shininess .35 } } geometry Cylinder { radius 0.3 height 3 } } ] }
Transform { translation -7.62 6.3500000000000005 0 rotation 1 0 0 1.5707963 children [ Shape { appearance Appearance { material Material { diffuseColor 0.75 0.56 0.15 specularColor .25 .25 .25 shininess .35 } } geometry Cylinder { radius 0.3 height 3 } } ] }
Transform { translation -7.62 3.8100000000000005 0 rotation 1 0 0 1.5707963 children [ Shape { appearance Appearance { material Material { diffuseColor 0.75 0.56 0.15 specularColor .25 .25 .25 shininess .35 } } geometry Cylinder { radius 0.3 height 3 } } ] }
Transform { translation -7.62 1.2700000000000005 0 rotation 1 0 0 1.5707963 children [ Shape { appearance Appearance { material Material { diffuseColor 0.75 0.56 0.15 specularColor .25 .25 .25 shininess .35 } } geometry Cylinder { radius 0.3 height 3 } } ] }
Transform { translation -7.62 -1.2699999999999996 0 rotation 1 0 0 1.5707963 children [ Shape { appearance Appearance { material Material { diffuseColor 0.75 0.56 0.15 specularColor .25 .25 .25 shininess .35 } } geometry Cylinder { radius 0.3 height 3 } } ] }
Transform { translation -7.62 -3.8099999999999987 0 rotation 1 0 0 1.5707963 children [ Shape { appearance Appearance { material Material { diffuseColor 0.75 0.56 0.15 specularColor .25 .25 .25 shininess .35 } } geometry Cylinder { radius 0.3 height 3 } } ] }
Transform { translation -7.62 -6.35 0 rotation 1 0 0 1.5707963 children [ Shape { appearance Appearance { material Material { diffuseColor 0.75 0.56 0.15 specularColor .25 .25 .25 shininess .35 } } geometry Cylinder { radius 0.3 height 3 } } ] }
Transform { translation -7.62 -8.89 0 rotation 1 0 0 1.5707963 children [ Shape { appearance Appearance { material Material { diffuseColor 0.75 0.56 0.15 specularColor .25 .25 .25 shininess .35 } } geometry Cylinder { radius 0.3 height 3 } } ] }
Transform { translation 7.62 8.89 0 rotation 1 0 0 1.5707963 children [ Shape { appearance Appearance { material Material { diffuseColor 0.75 0.56 0.15 specularColor .25 .25 .25 shininess .35 } } geometry Cylinder { radius 0.3 height 3 } } ] }
Transform { translation 7.62 6.3500000000000005 0 rotation 1 0 0 1.5707963 children [ Shape { appearance Appearance { material Material { diffuseColor 0.75 0.56 0.15 specularColor .25 .25 .25 shininess .35 } } geometry Cylinder { radius 0.3 height 3 } } ] }
Transform { translation 7.62 3.8100000000000005 0 rotation 1 0 0 1.5707963 children [ Shape { appearance Appearance { material Material { diffuseColor 0.75 0.56 0.15 specularColor .25 .25 .25 shininess .35 } } geometry Cylinder { radius 0.3 height 3 } } ] }
Transform { translation 7.62 1.2700000000000005 0 rotation 1 0 0 1.5707963 children [ Shape { appearance Appearance { material Material { diffuseColor 0.75 0.56 0.15 specularColor .25 .25 .25 shininess .35 } } geometry Cylinder { radius 0.3 height 3 } } ] }
Transform { translation 7.62 -1.2699999999999996 0 rotation 1 0 0 1.5707963 children [ Shape { appearance Appearance { material Material { diffuseColor 0.75 0.56 0.15 specularColor .25 .25 .25 shininess .35 } } geometry Cylinder { radius 0.3 height 3 } } ] }
Transform { translation 7.62 -3.8099999999999987 0 rotation 1 0 0 1.5707963 children [ Shape { appearance Appearance { material Material { diffuseColor 0.75 0.56 0.15 specularColor .25 .25 .25 shininess .35 } } geometry Cylinder { radius 0.3 height 3 } } ] }
Transform { translation 7.62 -6.35 0 rotation 1 0 0 1.5707963 children [ Shape { appearance Appearance { material Material { diffuseColor 0.75 0.56 0.15 specularColor .25 .25 .25 shininess .35 } } geometry Cylinder { radius 0.3 height 3 } } ] }
Transform { translation 7.62 -8.89 0 rotation 1 0 0 1.5707963 children [ Shape { appearance Appearance { material Material { diffuseColor 0.75 0.56 0.15 specularColor .25 .25 .25 shininess .35 } } geometry Cylinder { radius 0.3 height 3 } } ] }
Transform { translation -4 5 8 rotation 0 0 1 0 children [ Shape { appearance Appearance { material Material { diffuseColor 0.65 0.48 0.28 specularColor .25 .25 .25 shininess .35 } } geometry Box { size 1 2 0.7 } } ] }
Transform { translation 4 5 8 rotation 0 0 1 0 children [ Shape { appearance Appearance { material Material { diffuseColor 0.65 0.48 0.28 specularColor .25 .25 .25 shininess .35 } } geometry Box { size 1 2 0.7 } } ] }
Transform { translation -4 -5 8 rotation 0 0 1 0 children [ Shape { appearance Appearance { material Material { diffuseColor 0.65 0.48 0.28 specularColor .25 .25 .25 shininess .35 } } geometry Box { size 1 2 0.7 } } ] }
Transform { translation 4 -5 8 rotation 0 0 1 0 children [ Shape { appearance Appearance { material Material { diffuseColor 0.65 0.48 0.28 specularColor .25 .25 .25 shininess .35 } } geometry Box { size 1 2 0.7 } } ] }
] }
